<svg width="2420" height="438" viewBox="0 0 2420 438" fill="none" xmlns="http://www.w3.org/2000/svg">
<path d="M251.823 0C313.458 0 366.34 37.767 388.932 91.5918C409.253 75.8883 434.678 66.5567 462.264 66.5566C528.885 66.5567 582.893 120.989 582.893 188.134C582.893 188.786 582.885 189.436 582.875 190.086C648.144 193.552 700 247.572 700 313.704C700 382.074 644.575 437.5 576.204 437.5H123.796C55.4255 437.5 7.42386e-05 382.074 0 313.704C0 250.475 47.4025 198.32 108.608 190.833C104.967 177.844 103.019 164.138 103.019 149.975C103.019 67.1461 169.641 0.000357483 251.823 0ZM234.696 141.93C218.117 134.066 199 146.158 199 164.507C199 174.32 204.744 183.225 213.684 187.271L336.761 242.985C337.971 243.533 338.748 244.738 338.748 246.066C338.748 247.394 337.971 248.6 336.761 249.147L213.684 304.861C204.744 308.908 199 317.812 199 327.625C199 345.974 218.117 358.066 234.696 350.202L364.672 288.554C375.142 283.588 381.815 273.036 381.815 261.448V230.684C381.815 219.096 375.142 208.544 364.672 203.578L234.696 141.93ZM413.877 296.146C402.078 296.146 392.513 305.711 392.513 317.511C392.513 329.31 402.078 338.875 413.877 338.875H526.636C538.435 338.875 548 329.31 548 317.511C548 305.711 538.435 296.146 526.636 296.146H413.877Z" fill="#000B1A"/>
<path d="M2420 424.954H2343.35C2307.08 424.954 2278.64 416.094 2258.04 398.373C2237.43 380.652 2227.13 352.216 2227.13 313.065V55.2871H2319.86V302.556C2319.86 318.217 2323.15 328.726 2329.75 334.083C2336.75 339.028 2348.29 341.501 2364.36 341.501H2420V424.954ZM2420 191.903H2178.29V115.25H2420V191.903Z" fill="#000B1A"/>
<path d="M1923.18 431.136C1894.33 431.136 1870.22 425.779 1850.85 415.064C1831.89 403.937 1817.68 389.101 1808.2 370.555C1799.13 352.01 1794.6 331.198 1794.6 308.12V115.25H1887.32V277.211C1887.32 301.938 1893.3 320.071 1905.25 331.61C1917.2 342.738 1937.81 348.301 1967.07 348.301C1997.56 348.301 2018.79 342.325 2030.74 330.374C2043.1 318.011 2049.28 298.641 2049.28 272.266L2061.03 271.648L2067.83 330.374H2050.52C2048.05 347.683 2041.87 363.962 2031.98 379.21C2022.5 394.458 2008.69 407.028 1990.56 416.918C1972.84 426.397 1950.38 431.136 1923.18 431.136ZM2142.01 424.955H2055.47V329.138L2049.28 326.047V115.25H2142.01V424.955Z" fill="#000B1A"/>
<path d="M1734.32 424.955H1641.59V10.7793H1734.32V424.955Z" fill="#000B1A"/>
<path d="M1362.98 431.136C1334.13 431.136 1310.03 425.779 1290.66 415.064C1271.7 403.937 1257.48 389.101 1248 370.555C1238.94 352.01 1234.4 331.198 1234.4 308.12V115.25H1327.13V277.211C1327.13 301.938 1333.1 320.071 1345.06 331.61C1357.01 342.738 1377.61 348.301 1406.87 348.301C1437.37 348.301 1458.59 342.325 1470.54 330.374C1482.91 318.011 1489.09 298.641 1489.09 272.266L1500.83 271.648L1507.63 330.374H1490.33C1487.85 347.683 1481.67 363.962 1471.78 379.21C1462.3 394.458 1448.5 407.028 1430.36 416.918C1412.64 426.397 1390.18 431.136 1362.98 431.136ZM1581.82 424.955H1495.27V329.138L1489.09 326.047V115.25H1581.82V424.955Z" fill="#000B1A"/>
<path d="M1035.12 431.137C999.27 431.137 971.04 423.513 950.434 408.264C930.241 392.604 917.259 369.526 911.49 339.029H894.181L900.981 272.266H912.726C912.726 289.987 916.023 304.411 922.617 315.538C929.623 326.253 939.719 334.084 952.907 339.029C966.507 343.974 983.198 346.447 1002.98 346.447C1023.17 346.447 1039.66 343.974 1052.43 339.029C1065.21 334.084 1074.69 326.047 1080.87 314.92C1087.05 303.793 1090.14 288.957 1090.14 270.412C1090.14 251.042 1087.05 236 1080.87 225.285C1074.69 214.158 1065.21 206.122 1052.43 201.177C1039.66 196.231 1023.38 193.758 1003.6 193.758C973.513 193.758 950.847 199.322 935.598 210.449C920.35 221.576 912.726 240.533 912.726 267.321H900.981V197.467H917.671C923.029 171.504 935.392 150.28 954.762 133.796C974.543 117.311 1002.77 109.069 1039.45 109.069C1070.36 109.069 1096.53 115.663 1117.96 128.85C1139.39 142.038 1155.67 160.789 1166.79 185.104C1178.33 209.007 1184.1 237.443 1184.1 270.412C1184.1 302.969 1178.33 331.405 1166.79 355.72C1155.67 379.622 1138.98 398.168 1116.72 411.355C1094.47 424.543 1067.27 431.137 1035.12 431.137ZM905.926 424.955H820V10.7793H912.726V325.429L905.926 333.465V424.955Z" fill="#000B1A"/>
</svg>
