<svg width="14" height="47" viewBox="0 0 33 47" fill="none" xmlns="http://www.w3.org/2000/svg">
<path d="M8.83332 45.5H23.5M30.8333 18.0001V21.6667C30.8333 29.7334 24.2333 36.3334 16.1666 36.3334M16.1666 36.3334C8.09999 36.3334 1.5 29.7334 1.5 21.6667V18.0001M16.1666 36.3334V45.5M16.1666 1.50009C15.2023 1.49523 14.2465 1.6816 13.3546 2.04841C12.4626 2.41523 11.6523 2.95521 10.9704 3.63714C10.2884 4.31907 9.74845 5.12942 9.38164 6.02133C9.01482 6.91325 8.82846 7.86903 8.83332 8.83341V21.5521C8.83332 25.5855 12.1562 29 16.1666 29C20.177 29 23.5 25.6771 23.5 21.5521V8.83341C23.5 4.70842 20.2916 1.50009 16.1666 1.50009Z" stroke="black" stroke-width="3" stroke-linecap="round" stroke-linejoin="round"/>
</svg>
