<svg width="16" height="47" viewBox="0 0 39 47" fill="none" xmlns="http://www.w3.org/2000/svg">
<path d="M25.7578 9.93185C25.0145 10.2976 24.7084 11.1966 25.0741 11.94C25.4398 12.6833 26.3389 12.9894 27.0822 12.6237L26.42 11.2778L25.7578 9.93185ZM38.6 27.7222C38.6 26.8938 37.9284 26.2222 37.1 26.2222C36.2716 26.2222 35.6 26.8938 35.6 27.7222H37.1H38.6ZM20.36 0.438678C19.7738 -0.146743 18.8241 -0.14615 18.2387 0.440003C17.6533 1.02615 17.6539 1.9759 18.24 2.56132L19.3 1.5L20.36 0.438678ZM28.2 10.3889L29.26 11.4502C29.5417 11.1689 29.7 10.787 29.7 10.3889C29.7 9.99074 29.5417 9.60892 29.26 9.32756L28.2 10.3889ZM18.24 18.2164C17.6539 18.8019 17.6533 19.7516 18.2387 20.3378C18.8241 20.9239 19.7738 20.9245 20.36 20.3391L19.3 19.2778L18.24 18.2164ZM26.42 11.2778C27.0822 12.6237 27.0832 12.6232 27.0841 12.6227C27.0845 12.6226 27.0854 12.6221 27.0861 12.6218C27.0875 12.6211 27.0889 12.6204 27.0904 12.6196C27.0933 12.6182 27.0964 12.6166 27.0998 12.6149C27.1065 12.6115 27.114 12.6077 27.1222 12.6034C27.1386 12.5948 27.1583 12.5842 27.1806 12.5717C27.2245 12.5472 27.2821 12.5132 27.347 12.4701C27.459 12.3957 27.6702 12.244 27.859 12.0092C28.0401 11.7839 28.3584 11.2768 28.2356 10.5913C28.1131 9.90805 27.6362 9.51727 27.3224 9.32753C26.7369 8.97344 25.8532 8.78692 24.7247 8.6619C23.5186 8.52827 21.7833 8.44444 19.3 8.44444V9.94444V11.4444C21.7318 11.4444 23.344 11.5273 24.3944 11.6437C25.5224 11.7686 25.8044 11.9154 25.7701 11.8947C25.732 11.8716 25.3771 11.6475 25.2826 11.1205C25.1878 10.5913 25.4401 10.23 25.5207 10.1297C25.609 10.0198 25.6853 9.97231 25.6875 9.9709C25.6975 9.96425 25.7065 9.95888 25.7155 9.95385C25.7203 9.95114 25.726 9.94806 25.7328 9.94453C25.7362 9.94274 25.7399 9.94081 25.7441 9.93871C25.7461 9.93766 25.7483 9.93656 25.7506 9.93542C25.7518 9.93485 25.7529 9.93427 25.7541 9.93367C25.7547 9.93338 25.7557 9.93292 25.7559 9.93277C25.7569 9.93231 25.7578 9.93185 26.42 11.2778ZM19.3 9.94444V8.44444C15.4832 8.44444 11.752 9.57482 8.57822 11.6929L9.41086 12.9405L10.2435 14.1882C12.9241 12.3994 16.0758 11.4444 19.3 11.4444V9.94444ZM9.41086 12.9405L8.57822 11.6929C5.40438 13.8109 2.93039 16.8216 1.46939 20.3443L2.85495 20.919L4.24052 21.4936C5.474 18.5194 7.56294 15.9771 10.2435 14.1882L9.41086 12.9405ZM2.85495 20.919L1.46939 20.3443C0.00837755 23.8671 -0.373919 27.7436 0.370922 31.4835L1.84203 31.1905L3.31314 30.8975C2.68434 27.7403 3.00705 24.4677 4.24052 21.4936L2.85495 20.919ZM1.84203 31.1905L0.370922 31.4835C1.11576 35.2234 2.95422 38.6584 5.65351 41.3543L6.71351 40.293L7.7735 39.2317C5.49405 36.9551 3.94193 34.0547 3.31314 30.8975L1.84203 31.1905ZM6.71351 40.293L5.65351 41.3543C8.35278 44.0502 11.7916 45.8859 15.5351 46.6296L15.8274 45.1584L16.1197 43.6871C12.9574 43.0589 10.053 41.5083 7.7735 39.2317L6.71351 40.293ZM15.8274 45.1584L15.5351 46.6296C19.2786 47.3733 23.1588 46.9917 26.6852 45.5328L26.1118 44.1467L25.5384 42.7607C22.5597 43.9929 19.2819 44.3154 16.1197 43.6871L15.8274 45.1584ZM26.1118 44.1467L26.6852 45.5328C30.2116 44.074 33.2259 41.6033 35.3469 38.4331L34.1002 37.599L32.8534 36.7649C31.0626 39.4418 28.517 41.5284 25.5384 42.7607L26.1118 44.1467ZM34.1002 37.599L35.3469 38.4331C37.4678 35.2628 38.6 31.5354 38.6 27.7222H37.1H35.6C35.6 30.9412 34.6443 34.0881 32.8534 36.7649L34.1002 37.599ZM19.3 1.5L18.24 2.56132L27.14 11.4502L28.2 10.3889L29.26 9.32756L20.36 0.438678L19.3 1.5ZM28.2 10.3889L27.14 9.32756L18.24 18.2164L19.3 19.2778L20.36 20.3391L29.26 11.4502L28.2 10.3889Z" fill="black"/>
</svg>
